<svg width="553" height="593" viewBox="0 0 553 593" fill="none" xmlns="http://www.w3.org/2000/svg">
<path d="M121.612 83.9508C121.612 130.457 139.597 208.876 71.6825 293.648C5.34667 376.45 96.6069 114.254 188.261 98.0256C295.398 79.0554 110.758 518.301 101.238 428.909C95.9113 378.898 250.884 116.399 294.475 159.991C349.929 215.445 204.519 532.191 170.565 526.981C110.666 517.791 324.897 153.446 385.684 184.826C458.168 222.244 338.694 471.949 283.255 485.343C238.904 496.057 404.32 254.065 515.012 309.449" stroke="black" stroke-width="8" stroke-linecap="round"/>
<path d="M522.507 289.989C523.588 288.054 526.546 289.052 526.233 291.246L525.657 295.288C525.469 296.605 526.594 297.734 527.912 297.552L543.626 295.372C545.746 295.078 546.784 297.871 544.987 299.033L533.309 306.583C531.955 307.459 532.141 309.496 533.632 310.111L541.582 313.393C543.409 314.148 543.151 316.813 541.212 317.203L536.01 318.248C534.834 318.484 534.129 319.694 534.503 320.833L535.98 325.327C536.544 327.044 534.721 328.569 533.131 327.711L526.787 324.291C525.159 323.413 523.314 325.026 523.966 326.756L527.455 336.022C528.212 338.032 525.7 339.66 524.175 338.147L514.312 328.364C513.676 327.733 512.698 327.602 511.918 328.043L500.799 334.334C498.946 335.382 496.956 333.195 498.174 331.449L504.723 322.062C505.322 321.204 505.157 320.028 504.345 319.367L492.928 310.073C491.468 308.885 492.308 306.522 494.19 306.522H502.986C503.981 306.522 504.824 305.791 504.966 304.807L506.345 295.245C506.643 293.176 509.514 292.894 510.21 294.864L512.444 301.188C513.018 302.811 515.237 303 516.076 301.497L522.507 289.989Z" fill="#CD4631"/>
</svg>
