<svg width="170" height="134" viewBox="0 0 170 134" fill="none" xmlns="http://www.w3.org/2000/svg">
<path d="M12.9959 65.8446C18.7996 65.8756 23.715 65.7786 28.6136 65.9606C36.9228 66.2353 45.1166 66.8765 52.8056 70.6422C60.6028 74.4703 64.8387 80.7168 64.6458 89.2176C64.5192 94.4369 62.9768 99.6085 61.884 104.751C61.4461 106.76 60.435 108.678 59.3471 111.562C63.4289 109.492 66.6096 107.816 69.8569 106.275C77.7759 102.476 85.5466 98.3498 93.675 95.1042C104.791 90.6005 113.234 94.5608 117.37 105.897C118.988 110.344 119.535 115.23 120.522 119.938C120.81 121.355 120.891 122.798 121.106 124.509C126.792 118.41 132.111 112.532 137.619 106.908C150.484 93.7912 162.513 101.457 167.385 113.268C168.689 116.426 169.242 119.969 169.821 123.382C170.131 125.678 169.196 127.881 166.657 128.195C164.361 128.506 163.201 126.681 162.58 124.59C161.938 122.536 161.431 120.415 160.576 118.478C159.573 116.215 158.534 113.931 157.107 111.904C153.08 106.212 148.65 105.386 143.162 109.723C139.283 112.776 135.835 116.414 132.393 119.96C129.189 123.258 126.125 126.733 123.06 130.208C121.46 131.979 119.788 133.708 117.191 133.123C114.207 132.458 113.712 129.815 113.243 127.379C112.626 124.28 112.48 121.117 111.692 118.064C110.748 114.199 109.711 110.329 108.192 106.709C106.116 101.806 103.362 100.409 98.219 101.817C93.3032 103.165 88.3499 104.828 83.7045 106.957C73.7766 111.569 64.0541 116.493 54.3107 121.452C52.0005 122.62 49.9153 123.148 47.892 121.403C45.9561 119.756 46.2914 117.592 47.1485 115.44C48.685 111.613 50.4075 107.796 51.7427 103.9C52.9001 100.478 54.027 96.9432 54.539 93.3898C55.9302 83.8969 52.5837 78.6932 43.6161 75.3921C36.8776 72.8969 29.8693 71.7856 22.7331 71.5626C17.5916 71.3846 12.4485 71.5426 7.33193 71.5715C4.6237 71.5956 1.82247 71.6142 0.606064 68.5543C-0.507655 65.6501 1.22819 63.4768 3.03062 61.4382C3.80962 60.589 4.71214 59.8591 5.57856 59.1084C7.3475 57.6279 9.04984 56.0126 10.9575 54.7084C25.0792 44.9156 27.0367 31.2752 23.141 15.9394C22.4145 13.1144 20.7982 10.4972 19.5026 7.82469C18.8728 6.49884 17.8237 5.31583 17.3647 3.94422C17.0125 2.97104 16.9213 1.37884 17.4976 0.797402C18.1155 0.143794 19.6869 0.0887694 20.653 0.165428C22.7504 0.365984 24.8626 1.87418 26.0753 3.44036C28.4647 6.5519 30.7442 9.93684 32.1132 13.5658C35.1783 21.5901 35.642 30.037 34.6065 38.5805C33.7213 45.8637 29.9591 51.6301 24.6508 56.4077C21.1434 59.4826 17.4307 62.2466 12.9959 65.8446Z" fill="black"/>
</svg>
