<svg width="60" height="62" viewBox="0 0 60 62" fill="none" xmlns="http://www.w3.org/2000/svg">
<path d="M4.03157 31.1303C3.99707 31.0905 3.96462 31.0526 3.93327 31.0157C3.80125 30.8599 3.73359 30.7709 3.70179 30.7249C3.70045 30.723 3.69924 30.7212 3.69815 30.7196M4.03157 31.1303L2.72401 32.8503L2.8029 32.7741L3.09153 32.4949L3.97928 31.6365C3.94468 31.343 3.87516 31.1246 3.83126 31.006C3.77366 30.8504 3.71797 30.7519 3.69815 30.7196M4.03157 31.1303C4.05611 31.1363 4.07359 31.1395 4.08169 31.1407L4.07546 31.181L4.03157 31.1303ZM3.69815 30.7196C3.6934 30.7118 3.69071 30.7078 3.69056 30.7078C3.69041 30.7078 3.69279 30.7117 3.69815 30.7196ZM29.2551 40.8862C28.4025 43.313 27.6604 45.8327 26.9696 48.3149C25.7548 44.0695 23.0948 40.4495 18.8065 37.761C18.5006 37.5677 18.1898 37.3694 17.8736 37.1678C15.4518 35.623 12.716 33.878 9.48421 32.6147C13.9899 31.2266 17.7237 29.1427 20.8164 26.4604C23.9742 23.7218 26.3352 20.4707 28.1654 16.966C28.1469 17.4824 28.1357 17.996 28.1348 18.5008C27.9479 25.1195 33.0354 28.7174 37.4802 30.6613C36.1513 31.3578 34.8618 32.3256 33.939 33.5546C33.903 33.5977 33.8666 33.6413 33.8299 33.6852C32.3169 35.4955 30.2521 37.9663 29.2551 40.8862ZM3.86137 31.0735C3.86025 31.073 3.85972 31.0727 3.85975 31.0727L3.86137 31.0735Z" stroke="#CD4631" stroke-width="8"/>
</svg>
