<svg width="92" height="167" viewBox="0 0 92 167" fill="none" xmlns="http://www.w3.org/2000/svg">
<path d="M60.2122 82.5083C58.0012 88.8007 56.1682 95.3729 54.4405 101.727C54.3977 101.443 54.3534 101.158 54.3074 100.873L54.289 100.758L54.2668 100.644C52.3725 90.9478 46.9639 82.7092 37.4626 76.7531C36.8453 76.363 36.2198 75.9642 35.5851 75.5596C29.8785 71.9213 23.4334 67.8123 15.604 65.3008C26.0718 62.5742 34.5375 58.0913 41.3946 52.1442C49.0986 45.4627 54.4321 37.2281 58.3662 28.3591C58.1717 31.1753 58.0102 34.0878 58.006 36.8838C57.6088 50.6871 69.1516 57.7616 78.5362 61.4064C75.2179 62.7611 71.7631 64.9879 69.512 67.9976C69.4436 68.0796 69.3746 68.1622 69.3051 68.2454C66.2212 71.9369 62.161 76.7971 60.2122 82.5083ZM6.54472 62.1465C6.54495 62.1466 6.54878 62.1526 6.55556 62.1643C6.54789 62.1523 6.5445 62.1465 6.54472 62.1465ZM5.93084 67.2695C5.9308 67.2694 5.9336 67.2669 5.93942 67.2622C5.9338 67.2673 5.93087 67.2696 5.93084 67.2695Z" stroke="#81ADC8" stroke-width="14"/>
<path d="M95.9254 135.609C95.5566 136.659 95.2131 137.736 94.8879 138.818C93.6829 136.425 91.8006 134.356 89.1953 132.723C88.9584 132.573 88.716 132.418 88.4681 132.26C87.1383 131.411 85.6476 130.459 83.9577 129.615C86.6021 128.557 88.8884 127.157 90.8597 125.447C92.5575 123.975 93.9644 122.322 95.1454 120.556C95.7899 124.295 98.5619 126.649 101.277 128.111C100.689 128.557 100.144 129.078 99.6915 129.676C99.6613 129.712 99.6306 129.749 99.5995 129.786C98.4466 131.164 96.7528 133.189 95.9254 135.609ZM76.568 129.423L76.306 129.367L76.568 129.423Z" stroke="#CD4631" stroke-width="8"/>
<path d="M26.8501 156.531C26.7501 156.816 26.6529 157.104 26.5583 157.395C25.7952 156.273 24.7691 155.287 23.4706 154.473C23.3242 154.381 23.1736 154.284 23.0187 154.185C22.4574 153.827 21.8394 153.432 21.1592 153.046C22.4266 152.438 23.5577 151.694 24.5638 150.822C25.3525 150.138 26.0419 149.394 26.6482 148.609C27.2561 150.218 28.4832 151.357 29.7527 152.153C29.5783 152.325 29.414 152.51 29.2636 152.708C29.2442 152.731 29.2245 152.754 29.2045 152.778C28.4994 153.62 27.3947 154.94 26.8501 156.531ZM15.7456 152.958L15.7991 152.613L15.7456 152.958Z" stroke="black" stroke-width="6"/>
</svg>
