<svg width="37" height="40" viewBox="0 0 37 40" fill="none" xmlns="http://www.w3.org/2000/svg">
<path d="M13.2113 17.5219C14.6965 16.2338 15.9015 14.7705 16.8956 13.2021C17.2288 16.55 19.6954 18.5715 22.0514 19.7763C21.4948 20.1623 20.9772 20.6297 20.5622 21.1794C20.5384 21.2079 20.5143 21.2367 20.4899 21.2659C19.5646 22.3724 18.2315 23.9665 17.5822 25.866C17.2313 26.8648 16.9094 27.8928 16.607 28.9223C15.676 26.8432 14.1252 25.0532 11.9047 23.6608C11.7151 23.541 11.5217 23.4175 11.324 23.2914C10.1515 22.543 8.83284 21.7013 7.32346 20.9854C9.60051 20.1293 11.5486 18.9639 13.2113 17.5219Z" stroke="black" stroke-width="6"/>
</svg>
